<svg xmlns="http://www.w3.org/2000/svg" width="48" height="48" viewBox="0 0 48 48">
  <g fill="none" fill-rule="evenodd">
    <circle cx="24" cy="24" r="24" fill="#4A4A4A"/>
    <path fill="#F6A623" fill-rule="nonzero" d="M31.105469,24.25 C31.613281,24.25 32.052734,24.074219 32.423828,23.722656 C32.794922,23.371094 32.980469,22.921875 32.980469,22.375 C32.980469,21.828125 32.794922,21.378906 32.423828,21.027344 C32.052734,20.675781 31.613281,20.5 31.105469,20.5 C30.597656,20.5 30.158203,20.675781 29.787109,21.027344 C29.416016,21.378906 29.230469,21.828125 29.230469,22.375 C29.230469,22.921875 29.416016,23.371094 29.787109,23.722656 C30.158203,24.074219 30.597656,24.25 31.105469,24.25 Z M27.355469,19.269531 C27.863281,19.269531 28.302734,19.083984 28.673828,18.712891 C29.044922,18.341797 29.230469,17.902344 29.230469,17.394531 C29.230469,16.886719 29.044922,16.447266 28.673828,16.076172 C28.302734,15.705078 27.863281,15.519531 27.355469,15.519531 C26.847656,15.519531 26.408203,15.705078 26.037109,16.076172 C25.666016,16.447266 25.480469,16.886719 25.480469,17.394531 C25.480469,17.902344 25.666016,18.341797 26.037109,18.712891 C26.408203,19.083984 26.847656,19.269531 27.355469,19.269531 Z M21.144531,19.269531 C21.652344,19.269531 22.091797,19.083984 22.462891,18.712891 C22.833984,18.341797 23.019531,17.902344 23.019531,17.394531 C23.019531,16.886719 22.833984,16.447266 22.462891,16.076172 C22.091797,15.705078 21.652344,15.519531 21.144531,15.519531 C20.636719,15.519531 20.197266,15.705078 19.826172,16.076172 C19.455078,16.447266 19.269531,16.886719 19.269531,17.394531 C19.269531,17.902344 19.455078,18.341797 19.826172,18.712891 C20.197266,19.083984 20.636719,19.269531 21.144531,19.269531 Z M17.394531,24.25 C17.902344,24.25 18.341797,24.074219 18.712891,23.722656 C19.083984,23.371094 19.269531,22.921875 19.269531,22.375 C19.269531,21.828125 19.083984,21.378906 18.712891,21.027344 C18.341797,20.675781 17.902344,20.5 17.394531,20.5 C16.886719,20.5 16.447266,20.675781 16.076172,21.027344 C15.705078,21.378906 15.519531,21.828125 15.519531,22.375 C15.519531,22.921875 15.705078,23.371094 16.076172,23.722656 C16.447266,24.074219 16.886719,24.25 17.394531,24.25 Z M24.25,13 C27.335938,13 29.982422,13.976562 32.189453,15.929688 C34.396484,17.882812 35.5,20.246094 35.5,23.019531 C35.5,24.738281 34.884766,26.203125 33.654297,27.414062 C32.423828,28.625 30.949219,29.230469 29.230469,29.230469 L27.0625,29.230469 C26.515625,29.230469 26.066406,29.416016 25.714844,29.787109 C25.363281,30.158203 25.1875,30.597656 25.1875,31.105469 C25.1875,31.535156 25.34375,31.945312 25.65625,32.335938 C25.96875,32.726562 26.125,33.15625 26.125,33.625 C26.125,34.171875 25.949219,34.621094 25.597656,34.972656 C25.246094,35.324219 24.796875,35.5 24.25,35.5 C21.125,35.5 18.46875,34.40625 16.28125,32.21875 C14.09375,30.03125 13,27.375 13,24.25 C13,21.125 14.09375,18.46875 16.28125,16.28125 C18.46875,14.09375 21.125,13 24.25,13 Z"/>
  </g>
</svg>
