<svg xmlns="http://www.w3.org/2000/svg" width="150" height="152" viewBox="0 0 150 152">
  <g fill="none">
    <path fill="#9B9B9B" d="M75,152 C116.421356,152 150,118.421356 150,77 C150,35.5786438 116.421356,2 75,2 C33.5786438,2 0,35.5786438 0,77 C0,118.421356 33.5786438,152 75,152 Z"/>
    <path fill="#EEEEEE" d="M75,150 C116.421356,150 150,116.421356 150,75 C150,33.5786438 116.421356,0 75,0 C33.5786438,0 0,33.5786438 0,75 C0,116.421356 33.5786438,150 75,150 Z"/>
    <g transform="translate(50 25)">
      <path fill="#27BD26" d="M33.8864018,13.5572652 L0,85.7001891 L14.1465997,100 L40.2188776,38.8432436 C40.2188776,38.8432436 42.6999211,30.1144192 41.3531797,24.7695089 C40.0064383,19.4245986 35.5614938,6.8753632 35.5614938,6.8753632 C35.5614938,6.8753632 32.6970516,0.482932964 25.3876649,0.0227574175 C18.0782783,-0.437418129 14.5435666,6.20858601 13.7306373,8.43003093 C12.9177079,10.6514759 10.0741995,19.3016305 10.0741995,19.3016305 C10.0741995,19.3016305 6.68486153,27.6042673 8.99300721,36.1700239 C11.301153,44.7357804 14.5435666,50.3132615 14.5435666,50.3132615 L23.9180344,30.5203673 L16.1380248,13.5572656 C16.1380248,13.5572656 23.7470749,10.053057 33.8864018,13.5572652 Z M26.0893351,77.0649273 L35.5870796,54.7099429 L50.4950495,86.9455266 L35.828206,99.7956898 L26.0893351,77.0649273 Z"/>
      <polygon fill="#345748" points="25.743 77.038 35.375 54.455 50.495 87.019 35.62 100"/>
      <path fill="#345748" d="M16.3721886,13.8613861 L13.8613861,8.59519474 C13.8613861,8.59519474 16.0702629,0.26312686 25.2475248,0.00486844476 C34.4247866,-0.253389894 36.6336634,9.84920615 36.6336634,9.84920615 L34.1520043,13.8067211 C34.1520043,13.8067211 25.9182119,10.4725421 16.3721886,13.8613861 Z"/>
    </g>
  </g>
</svg>
