<svg xmlns="http://www.w3.org/2000/svg" width="23" height="31" viewBox="0 0 23 31">
  <g fill="none" fill-rule="evenodd">
    <path fill="#D8D8D8" d="M1.60229492,11.0283203 C1.60229492,11.0283203 21.3828125,11.5339355 21.6523438,10.5698242 C21.921875,9.60571289 24.6437988,29.6367188 11.7653809,29.6367188 C-1.11303711,29.6367188 1.60229492,11.0283203 1.60229492,11.0283203 Z"/>
    <path fill="#D8D8D8" d="M11.5969238,1.32421875 C11.5969238,1.32421875 11.5969238,11.4992676 11.5969238,11.4992676 L1.69848633,10.1542969 C1.69848633,10.1542969 1.05151367,0.604248047 11.5969238,1.32421875 Z"/>
    <path fill="#D8D8D8" d="M21.9061654,2.03875476 C21.9061654,2.03875476 21.9061654,12.2138036 21.9061654,12.2138036 L12.0077279,10.8688329 C12.0077279,10.8688329 11.3607552,1.31878406 21.9061654,2.03875476 Z" transform="matrix(-1 0 0 1 33.906 0)"/>
    <path fill="#212121" fill-rule="nonzero" d="M20.2545801,9.59924399 C19.7930694,5.458069 18.2097464,2.94790448 12.7777778,2.620045 L12.7777778,10.3203062 C15.3602319,10.2670303 17.9128585,10.0470147 20.2545801,9.59924399 Z M20.4175649,12.2321112 C17.5843444,12.7176048 14.6406329,12.9166667 11.5,12.9166667 C8.3593671,12.9166667 5.41565562,12.7176048 2.58243511,12.2321112 C2.55555556,13.2532279 2.55555556,14.3443356 2.55555556,15.5 C2.55555556,18.7291667 2.55555556,28.4166667 11.5,28.4166667 C20.4444444,28.4166667 20.4444444,18.7291667 20.4444444,15.5 C20.4444444,14.3443356 20.4444444,13.2532279 20.4175649,12.2321112 Z M2.74541989,9.59924399 C5.08714148,10.0470147 7.63976814,10.2670303 10.2222222,10.3203062 L10.2222222,2.620045 C4.7902536,2.94790448 3.2069306,5.458069 2.74541989,9.59924399 Z M11.5,31 C6.26111111,31 0,28.2875 0,15.5 C0,7.87916667 0,0 11.5,0 C23,0 23,7.87916667 23,15.5 C23,28.2875 16.7388889,31 11.5,31 Z"/>
    <path stroke="#FFFFFF" d="M18.8919678 14C18.8919678 14.5384199 19.8037109 26.2177882 11 27.0756836M14 3.81012453C14 3.81012453 18.66712 4.20932436 19 8.70813198" stroke-linecap="round" stroke-linejoin="round"/>
  </g>
</svg>
