<?xml version="1.0" encoding="UTF-8"?>
<svg width="40px" height="36px" viewBox="0 0 40 36" version="1.1" xmlns="http://www.w3.org/2000/svg" xmlns:xlink="http://www.w3.org/1999/xlink">
    <!-- Generator: Sketch 41.2 (35397) - http://www.bohemiancoding.com/sketch -->
    <title>toiletpaper</title>
    <desc>Created with Sketch.</desc>
    <defs></defs>
    <g id="Page-1" stroke="none" stroke-width="1" fill="none" fill-rule="evenodd">
        <g id="toiletpaper" fill="#9B9B9B">
            <path d="M35.95104,22.12576 L38.67744,19.39744 C39.42816,18.64864 39.42816,17.43328 38.67744,16.68448 L35.95104,13.95808 L38.91744,9.5056 C39.31104,8.91616 39.34752,8.15776 39.01344,7.53568 C38.67936,6.91168 38.02848,6.52 37.32,6.52 L23.51712,6.52 C22.2672,3.17536 17.81856,0.76 12.36,0.76 C5.90112,0.76 0.84,4.13344 0.84,8.44 L0.84,27.64 C0.84,31.94656 5.90112,35.32 12.36,35.32 C17.81856,35.32 22.2672,32.90656 23.51712,29.56 L37.32,29.56 C38.02848,29.56 38.67936,29.17024 39.01344,28.54624 C39.34752,27.92032 39.31104,27.16384 38.91744,26.57632 L35.95104,22.12576 Z M12.36,4.6 C16.7568,4.6 20.04,6.62752 20.04,8.44 C20.04,10.25248 16.7568,12.28 12.36,12.28 C7.9632,12.28 4.68,10.2544 4.68,8.44 C4.68,6.6256 7.9632,4.6 12.36,4.6 Z M12.36,31.48 C7.9632,31.48 4.68,29.45248 4.68,27.64 L4.68,14.2 C6.7056,15.39616 9.38016,16.12 12.36,16.12 C15.33984,16.12 18.0144,15.39616 20.04,14.2 L20.04,27.64 C20.04,29.4544 16.7568,31.48 12.36,31.48 Z M31.88256,22.9456 L33.73152,25.72 L23.88,25.72 L23.88,10.36 L33.73152,10.36 L31.88256,13.1344 C31.37376,13.89664 31.47552,14.9104 32.12256,15.55552 L34.60512,18.04 L32.12256,20.52256 C31.47552,21.1696 31.37376,22.18528 31.88256,22.9456 Z M12.36,10.36 C13.4203867,10.36 14.28,9.50038672 14.28,8.44 C14.28,7.37961328 13.4203867,6.52 12.36,6.52 C11.2996133,6.52 10.44,7.37961328 10.44,8.44 C10.44,9.50038672 11.2996133,10.36 12.36,10.36 Z" id="Combined-Shape"></path>
        </g>
    </g>
</svg>