<svg xmlns="http://www.w3.org/2000/svg" width="32" height="32" viewBox="0 0 32 32">
  <path fill="#D8D8D8" d="M821.092237,73 L805.766155,73 C804.790449,73 804,72.2090613 804,71.2337353 L804,42.7661407 C804,41.7905667 804.790573,41 805.766155,41 L834.23397,41 C835.209303,41 836,41.7905667 836,42.7661407 L836,71.2337353 C836,72.2091853 835.209179,73 834.23397,73 L826.079537,73 L826.079537,60.6078367 L830.239014,60.6078367 L830.861837,55.7783907 L826.079537,55.7783907 L826.079537,52.695094 C826.079537,51.296858 826.467808,50.3440067 828.47286,50.3440067 L831.030207,50.3428887 L831.030207,46.023394 C830.587924,45.9645387 829.069856,45.8330467 827.303701,45.8330467 C823.616556,45.8330467 821.092237,48.083684 821.092237,52.216806 L821.092237,55.7783907 L816.922081,55.7783907 L816.922081,60.6078367 L821.092237,60.6078367 L821.092237,73 L821.092237,73 Z" transform="translate(-804 -41)"/>
</svg>
