<svg xmlns="http://www.w3.org/2000/svg" width="39" height="32" viewBox="0 0 39 32">
  <path fill="#D8D8D8" d="M938.4,44.7882264 C936.989047,45.4307696 935.469906,45.8652944 933.876386,46.059444 C935.503715,45.0609608 936.752386,43.4777176 937.340658,41.5916936 C935.81701,42.5162152 934.133334,43.1888048 932.334707,43.549368 C930.901215,41.9799928 928.852403,41 926.584962,41 C922.237154,41 918.709773,44.6171904 918.709773,49.0780064 C918.709773,49.711304 918.77739,50.3261104 918.912626,50.917804 C912.364994,50.5803536 906.561155,47.3676416 902.673146,42.474612 C901.994718,43.6718672 901.607043,45.0609608 901.607043,46.5401952 C901.607043,49.3414952 902.997711,51.8145904 905.111886,53.2637776 C903.822645,53.2244856 902.605529,52.856988 901.54168,52.2560488 L901.54168,52.3554352 C901.54168,56.270784 904.257651,59.536656 907.86392,60.2762728 C907.203522,60.4658 906.507061,60.5605632 905.788062,60.5605632 C905.28093,60.5605632 904.785068,60.5120264 904.304983,60.4172624 C905.307977,63.625352 908.215531,65.96208 911.664026,66.0244856 C908.968339,68.192488 905.569431,69.4845072 901.879767,69.4845072 C901.244162,69.4845072 900.615319,69.4475264 900,69.3735648 C903.486811,71.6617552 907.629512,73 912.076492,73 C926.569185,73 934.491706,60.692308 934.491706,50.016396 C934.491706,49.6650776 934.484945,49.3137592 934.471421,48.9693752 C936.010847,47.8299024 937.34742,46.4084504 938.4,44.7882264" transform="translate(-900 -41)"/>
</svg>
