<svg xmlns="http://www.w3.org/2000/svg" width="32" height="32" viewBox="0 0 32 32">
  <path fill="#D8D8D8" d="M868.000032,41 C863.654661,41 863.109791,41.0184187 861.403221,41.0962847 C859.700207,41.1739593 858.53711,41.444458 857.519392,41.8400113 C856.467251,42.2488387 855.574969,42.7959313 854.685419,43.6854187 C853.795931,44.5749693 853.248839,45.4672507 852.840011,46.519392 C852.444458,47.53711 852.173959,48.7002073 852.096285,50.4032207 C852.018419,52.1097907 852,52.6546607 852,57.000032 C852,61.3453393 852.018419,61.8902093 852.096285,63.5967793 C852.173959,65.2997927 852.444458,66.46289 852.840011,67.480608 C853.248839,68.5327493 853.795931,69.4250307 854.685419,70.3145813 C855.574969,71.2040687 856.467251,71.7511613 857.519392,72.1600527 C858.53711,72.555542 859.700207,72.8260407 861.403221,72.9037153 C863.109791,72.9815813 863.654661,73 868.000032,73 C872.345339,73 872.890209,72.9815813 874.596779,72.9037153 C876.299793,72.8260407 877.46289,72.555542 878.480608,72.1600527 C879.532749,71.7511613 880.425031,71.2040687 881.314581,70.3145813 C882.204069,69.4250307 882.751161,68.5327493 883.160053,67.480608 C883.555542,66.46289 883.826041,65.2997927 883.903715,63.5967793 C883.981581,61.8902093 884,61.3453393 884,57.000032 C884,52.6546607 883.981581,52.1097907 883.903715,50.4032207 C883.826041,48.7002073 883.555542,47.53711 883.160053,46.519392 C882.751161,45.4672507 882.204069,44.5749693 881.314581,43.6854187 C880.425031,42.7959313 879.532749,42.2488387 878.480608,41.8400113 C877.46289,41.444458 876.299793,41.1739593 874.596779,41.0962847 C872.890209,41.0184187 872.345339,41 868.000032,41 Z M868.000032,43.882878 C872.272173,43.882878 872.778237,43.8992007 874.465373,43.9761773 C876.025357,44.0473107 876.872545,44.307964 877.436342,44.5270807 C878.183181,44.8173313 878.716175,45.164044 879.276033,45.7239667 C879.835956,46.2838253 880.182669,46.8168193 880.472919,47.563658 C880.692036,48.1274547 880.952689,48.9746427 881.023823,50.5346267 C881.100799,52.2217627 881.117122,52.7278267 881.117122,57.000032 C881.117122,61.2721733 881.100799,61.7782373 881.023823,63.4653733 C880.952689,65.0253573 880.692036,65.8725453 880.472919,66.436342 C880.182669,67.1831807 879.835956,67.7161747 879.276033,68.2760333 C878.716175,68.835956 878.183181,69.1826687 877.436342,69.4729193 C876.872545,69.692036 876.025357,69.9526893 874.465373,70.0238227 C872.778491,70.1007993 872.272491,70.117122 868.000032,70.117122 C863.727509,70.117122 863.221572,70.1007993 861.534627,70.0238227 C859.974643,69.9526893 859.127455,69.692036 858.563658,69.4729193 C857.816819,69.1826687 857.283825,68.835956 856.723967,68.2760333 C856.164107,67.7161747 855.817331,67.1831807 855.527081,66.436342 C855.307964,65.8725453 855.047311,65.0253573 854.976177,63.4653733 C854.899201,61.7782373 854.882878,61.2721733 854.882878,57.000032 C854.882878,52.7278267 854.899201,52.2217627 854.976177,50.5346267 C855.047311,48.9746427 855.307964,48.1274547 855.527081,47.563658 C855.817331,46.8168193 856.164044,46.2838253 856.723967,45.7239667 C857.283825,45.164044 857.816819,44.8173313 858.563658,44.5270807 C859.127455,44.307964 859.974643,44.0473107 861.534627,43.9761773 C863.221763,43.8992007 863.727827,43.882878 868.000032,43.882878 Z M868.000032,48.7837887 C863.462283,48.7837887 859.783789,52.4622827 859.783789,57.000032 C859.783789,61.5377173 863.462283,65.2162113 868.000032,65.2162113 C872.537717,65.2162113 876.216211,61.5377173 876.216211,57.000032 C876.216211,52.4622827 872.537717,48.7837887 868.000032,48.7837887 Z M868.000032,62.3333333 C865.054467,62.3333333 862.666667,59.9455327 862.666667,57.000032 C862.666667,54.0544673 865.054467,51.6666667 868.000032,51.6666667 C870.945533,51.6666667 873.333333,54.0544673 873.333333,57.000032 C873.333333,59.9455327 870.945533,62.3333333 868.000032,62.3333333 Z M878.460856,48.4591787 C878.460856,49.5195767 877.601219,50.3791493 876.540821,50.3791493 C875.480487,50.3791493 874.620851,49.5195767 874.620851,48.4591787 C874.620851,47.3987807 875.480487,46.539144 876.540821,46.539144 C877.601219,46.539144 878.460856,47.3987807 878.460856,48.4591787 Z" transform="translate(-852 -41)"/>
</svg>
