<svg xmlns="http://www.w3.org/2000/svg" width="46" height="46" viewBox="0 0 46 46">
  <g fill="none" fill-rule="evenodd" transform="translate(3 3)" opacity=".05">
    <path stroke="#000000" stroke-width="5" d="M19.9450534,0 C8.92967972,0 0,8.92967972 0,19.9450534 C0,30.960427 8.92967972,39.8901068 19.9450534,39.8901068 C30.960427,39.8901068 39.8901068,30.960427 39.8901068,19.9450534 C39.8901068,8.92967972 30.960427,0 19.9450534,0"/>
    <path fill="#000000" d="M30.7002135,32.7528826 C30.1133096,32.8223488 29.5123132,32.8577936 28.8972242,32.8577936 C27.526548,32.8577936 26.3103203,32.633879 25.2485409,32.187331 C24.1854804,31.7393594 23.2711744,31.1043416 22.5043416,30.2794306 C21.7389324,29.4543772 21.1222776,28.4679004 20.65879,27.3182918 C20.3658363,26.5937367 20.1375089,25.8101068 19.9601423,24.9793594 C19.7827758,25.8101068 19.5544484,26.5937367 19.2614947,27.3182918 C18.7980071,28.4679004 18.1813523,29.4543772 17.4159431,30.2794306 C16.6491103,31.1043416 15.7348043,31.7393594 14.6717438,32.187331 C13.6099644,32.633879 12.3937367,32.8577936 11.0230605,32.8577936 C10.4079715,32.8577936 9.80697509,32.8223488 9.22007117,32.7528826 C8.63459075,32.6834164 8.02790036,32.5672598 7.4,32.4041281 L7.81822064,29.1467616 C7.85366548,28.8576512 7.95430605,28.6152313 8.12298932,28.4239146 C8.2916726,28.2325979 8.56099644,28.1375089 8.93380783,28.1375089 C9.21153025,28.1375089 9.52483986,28.1688256 9.87359431,28.2325979 C10.2222064,28.2963701 10.6049822,28.328968 11.0230605,28.328968 C11.9642705,28.328968 12.7353737,27.960427 13.3392171,27.2219217 C13.9430605,26.4848399 14.3441993,25.28 14.5413523,23.6086833 L16.5271174,7.2 L17.7147331,7.2 L22.2055516,7.2 L23.3931673,7.2 L25.3790747,23.6086833 C25.5760854,25.28 25.9772242,26.4848399 26.5810676,27.2219217 C27.184911,27.960427 27.9560142,28.328968 28.8972242,28.328968 C29.3153025,28.328968 29.6980783,28.2963701 30.0468327,28.2325979 C30.3954448,28.1688256 30.7087544,28.1375089 30.9866192,28.1375089 C31.3592883,28.1375089 31.6286121,28.2325979 31.7972954,28.4239146 C31.9659786,28.6152313 32.0666192,28.8576512 32.1020641,29.1467616 L32.5202847,32.4041281 C31.8923843,32.5672598 31.285694,32.6834164 30.7002135,32.7528826"/>
  </g>
</svg>
