<?xml version="1.0" encoding="UTF-8" standalone="no"?>
<svg width="82px" height="82px" viewBox="0 0 82 82" version="1.1" xmlns="http://www.w3.org/2000/svg" xmlns:xlink="http://www.w3.org/1999/xlink">
    <!-- Generator: Sketch 40.2 (33826) - http://www.bohemiancoding.com/sketch -->
    <title>avatar</title>
    <desc>Created with Sketch.</desc>
    <defs></defs>
    <g id="Page-1" stroke="none" stroke-width="1" fill="none" fill-rule="evenodd">
        <g id="128" transform="translate(-2.000000, -2.000000)">
            <g id="avatar" transform="translate(3.000000, 3.000000)">
                <path d="M79.2603559,46.3299929 L46.7561566,14.2326263 L50.7279715,47.0499929 C51.1219929,50.3923416 51.9242705,52.8020214 53.1319573,54.2761851 C54.3396441,55.7531957 55.8818505,56.4902776 57.7642705,56.4902776 C58.6007117,56.4902776 59.3659786,56.4250819 60.0634875,56.2975374 C60.7607117,56.1699929 61.387331,56.1076441 61.9430605,56.1076441 C62.6886833,56.1076441 63.227331,56.2975374 63.5646975,56.6804555 C63.9020641,57.063089 64.1033452,57.5479288 64.1742349,58.1261495 L65.0103915,64.6408826 C63.7545907,64.9668612 62.54121,65.1994591 61.3702491,65.3383915 C60.196726,65.4770391 58.9947331,65.5479288 57.7642705,65.5479288 C55.0229181,65.5479288 52.5904626,65.1000996 50.4671886,64.2070036 C48.3407829,63.3113452 46.5124555,62.0413096 44.97879,60.3912028 C43.4476868,58.7413808 42.2146619,56.7681423 41.2874021,54.4689253 C40.7014947,53.0200996 40.2451246,51.4525552 39.8901068,49.7910605 C39.5353737,51.4525552 39.0790036,53.0200996 38.4928114,54.4689253 C37.5658363,56.7681423 36.3328114,58.7413808 34.8017082,60.3912028 C33.2680427,62.0413096 31.4394306,63.3113452 29.3133096,64.2070036 C27.1900356,65.1000996 24.7575801,65.5479288 22.0162278,65.5479288 C20.7857651,65.5479288 19.5837722,65.4770391 18.4099644,65.3383915 C17.2392883,65.1994591 16.0259075,64.9668612 14.7701068,64.6408826 L28.2958007,78.0666477 C31.9652669,79.1798149 35.8573665,79.7805267 39.8901068,79.7805267 C59.7283986,79.7805267 76.1813523,65.2982491 79.2603559,46.3299929" id="shadow" fill-opacity="0.25" fill="#000000"></path>
                <path d="M39.8901922,0.000199288256 C17.8594448,0.000199288256 8.54092526e-05,17.8595587 8.54092526e-05,39.890306 C8.54092526e-05,61.9210534 17.8594448,79.7804128 39.8901922,79.7804128 C61.9209395,79.7804128 79.7802989,61.9210534 79.7802989,39.890306 C79.7802989,17.8595587 61.9209395,0.000199288256 39.8901922,0.000199288256" id="background" stroke="#FFFFFF" stroke-width="2"></path>
                <path d="M61.3703345,65.3382776 C60.1965267,65.47721 58.9945338,65.5480996 57.7643559,65.5480996 C55.0230036,65.5480996 52.590548,65.1002705 50.4669893,64.2071744 C48.3408683,63.3112313 46.5122562,62.0411957 44.9785907,60.3913737 C43.4477722,58.7412669 42.2144626,56.7683132 41.2874875,54.4690961 C40.7015801,53.0199858 40.2449253,51.452726 39.8901922,49.7912313 C39.5354591,51.452726 39.0788043,53.0199858 38.4928968,54.4690961 C37.5659217,56.7683132 36.3326121,58.7412669 34.8017936,60.3913737 C33.2681281,62.0411957 31.439516,63.3112313 29.313395,64.2071744 C27.1898363,65.1002705 24.7573808,65.5480996 22.0160285,65.5480996 C20.7858505,65.5480996 19.5838577,65.47721 18.4100498,65.3382776 C17.239089,65.1993452 16.0257082,64.967032 14.7699075,64.6407687 L15.6063488,58.1260356 C15.6772384,57.5478149 15.8785196,57.0629751 16.2158861,56.6803416 C16.5532527,56.2977082 17.0919004,56.1075302 17.8375231,56.1075302 C18.392968,56.1075302 19.0195872,56.1701637 19.7170961,56.2977082 C20.4143203,56.4252527 21.1798719,56.4904484 22.0160285,56.4904484 C23.8984484,56.4904484 25.4406548,55.7533665 26.6483416,54.2763559 C27.8560285,52.8021922 28.658306,50.3925125 29.0526121,47.049879 L33.0241423,14.2325125 L35.3993737,14.2325125 L44.3810107,14.2325125 L46.756242,14.2325125 L50.7280569,47.049879 C51.1220783,50.3925125 51.9243559,52.8021922 53.1320427,54.2763559 C54.3397295,55.7533665 55.8819359,56.4904484 57.7643559,56.4904484 C58.6005125,56.4904484 59.3660641,56.4252527 60.063573,56.2977082 C60.7607972,56.1701637 61.3874164,56.1075302 61.9431459,56.1075302 C62.688484,56.1075302 63.2271317,56.2977082 63.5644982,56.6803416 C63.9018648,57.0629751 64.1031459,57.5478149 64.1740356,58.1260356 L65.0104769,64.6407687 C63.7546762,64.967032 62.5412954,65.1993452 61.3703345,65.3382776" id="JJ" fill="#FFFFFF"></path>
            </g>
        </g>
    </g>
</svg>