<svg xmlns="http://www.w3.org/2000/svg" width="128" height="128" viewBox="0 0 128 128">
  <g fill="none" fill-rule="evenodd" transform="translate(-1 -1)">
    <path fill="#BD3926" d="M65,2 C30.2059823,2 2,30.2059823 2,65 C2,99.7940177 30.2059823,128 65,128 C99.7940177,128 128,99.7940177 128,65 C128,30.2059823 99.7940177,2 65,2" transform="rotate(1 65 65)"/>
    <path fill="#000000" fill-opacity=".25" d="M128,75.4161929 L76.0862212,24 L82.4297684,76.5695479 C83.0590759,81.9235961 84.3404261,85.7836186 86.2692719,88.1450549 C88.1981176,90.5110517 90.6612382,91.6917698 93.6677276,91.6917698 C95.003642,91.6917698 96.2258809,91.5873339 97.3399008,91.3830227 C98.4534659,91.1787115 99.4542649,91.0788362 100.341843,91.0788362 C101.532708,91.0788362 102.393004,91.3830227 102.931826,91.9964124 C103.470647,92.609346 103.792122,93.3860022 103.905343,94.3122435 L105.240802,104.748077 C103.235112,105.270256 101.297172,105.642851 99.4269828,105.865404 C97.5527013,106.087501 95.6329496,106.201058 93.6677276,106.201058 C89.2894024,106.201058 85.4044287,105.483689 82.0132614,104.053054 C78.6170924,102.618315 75.6969963,100.583868 73.2475168,97.9405917 C70.8021296,95.2977714 68.8328154,92.1368763 67.351851,88.453802 C66.4160744,86.1329543 65.6871871,83.6219331 65.1201738,80.9604147 C64.5536151,83.6219331 63.8247278,86.1329543 62.8884965,88.453802 C61.4079869,92.1368763 59.4386726,95.2977714 56.9932854,97.9405917 C54.5438059,100.583868 51.6232551,102.618315 48.2275408,104.053054 C44.8363735,105.483689 40.9513999,106.201058 36.5730746,106.201058 C34.6078527,106.201058 32.6881009,106.087501 30.8133647,105.865404 C28.9436302,105.642851 27.0056904,105.270256 25,104.748077 L46.602436,126.254568 C52.4630897,128.037731 58.6793203,129 65.1201738,129 C96.8047165,129 123.082398,105.801101 128,75.4161929"/>
    <path fill="#FFFFFF" d="M99.2036607,105.664714 C97.3345611,105.886721 95.4205814,106 93.4617215,106 C89.0965603,106 85.2232674,105.284389 81.8418428,103.857262 C78.4563382,102.425585 75.5445685,100.396125 73.1024537,97.7597839 C70.6648722,95.1229875 68.7010257,91.9702962 67.2249674,88.2962507 C66.2920043,85.9806376 65.5648552,83.4762269 65,80.8212332 C64.4351448,83.4762269 63.7079957,85.9806376 62.7750326,88.2962507 C61.2989743,91.9702962 59.3351278,95.1229875 56.8975463,97.7597839 C54.4554315,100.396125 51.5436618,102.425585 48.1581572,103.857262 C44.7767326,105.284389 40.9034397,106 36.5382785,106 C34.5794186,106 32.6654389,105.886721 30.7963393,105.664714 C28.9317731,105.442706 26.99966,105.07148 25,104.550126 L26.3318978,94.1398755 C26.4447781,93.2159049 26.7652859,92.4411526 27.3024877,91.8297216 C27.8396895,91.2182906 28.697399,90.9143948 29.8846829,90.9143948 C30.7691392,90.9143948 31.7669292,91.0144802 32.8775996,91.2182906 C33.9878166,91.4221009 35.206834,91.5262807 36.5382785,91.5262807 C39.5357285,91.5262807 41.9914433,90.3484571 43.9144897,87.9882605 C45.8375361,85.6326132 47.1150337,81.7820534 47.7429025,76.4406755 L54.0669236,24 L57.8490962,24 L72.1509038,24 L75.9330764,24 L82.2575509,76.4406755 C82.8849663,81.7820534 84.1624639,85.6326132 86.0855103,87.9882605 C88.0085567,90.3484571 90.4642715,91.5262807 93.4617215,91.5262807 C94.793166,91.5262807 96.0121834,91.4221009 97.1228537,91.2182906 C98.2330708,91.0144802 99.2308608,90.9143948 100.11577,90.9143948 C101.302601,90.9143948 102.160311,91.2182906 102.697512,91.8297216 C103.234714,92.4411526 103.555222,93.2159049 103.668102,94.1398755 L105,104.550126 C103.00034,105.07148 101.068227,105.442706 99.2036607,105.664714"/>
    <path fill="#FFFFFF" d="M65,129 C29.653776,129 1,100.346224 1,65 C1,29.653776 29.653776,1 65,1 C100.346224,1 129,29.653776 129,65 C129,100.346224 100.346224,129 65,129 Z M65,125 C98.137085,125 125,98.137085 125,65 C125,31.862915 98.137085,5 65,5 C31.862915,5 5,31.862915 5,65 C5,98.137085 31.862915,125 65,125 Z"/>
  </g>
</svg>
