<?xml version="1.0" encoding="UTF-8" standalone="no"?>
<svg width="48px" height="42px" viewBox="0 0 48 42" version="1.1" xmlns="http://www.w3.org/2000/svg" xmlns:xlink="http://www.w3.org/1999/xlink">
    <!-- Generator: Sketch 40.2 (33826) - http://www.bohemiancoding.com/sketch -->
    <title>briefcase</title>
    <desc>Created with Sketch.</desc>
    <defs></defs>
    <g id="Page-1" stroke="none" stroke-width="1" fill="none" fill-rule="evenodd">
        <g id="briefcase" transform="translate(1.000000, 1.000000)">
            <rect id="Rectangle" fill="#C7905F" x="0" y="8" width="46" height="32" rx="2"></rect>
            <rect id="Rectangle-2" fill="#4A4A4A" x="16" y="0" width="14" height="4"></rect>
            <path d="M46,38 C46,39.1 45.1,40 44,40 L2,40 C0.9,40 0,39.1 0,38 L0,10 C0,8.898 0.9,8 2,8 L44,8 C45.1,8 46,8.898 46,10 L46,38 L46,38 Z M16,8 L16,1 C16,0.448 16.452,0 17,0 L29,0 C29.55,0 30,0.448 30,1 L30,8 L16,8 Z M16,4 L30,4 L16,4 Z" id="Shape" stroke="#212121" stroke-width="2"></path>
            <path d="M6,16 L40,16 M6,24 L40,24 M6,32 L40,32" id="Shape" stroke="#8B572A" stroke-width="2" stroke-linecap="round"></path>
        </g>
    </g>
</svg>