<svg xmlns="http://www.w3.org/2000/svg" width="48" height="42" viewBox="0 0 48 42">
  <g fill="none" fill-rule="evenodd" transform="translate(1 1)">
    <rect width="46" height="32" y="8" fill="#C7905F" rx="2"/>
    <rect width="14" height="4" x="16" fill="#4A4A4A"/>
    <path stroke="#212121" stroke-width="2" d="M46,38 C46,39.1 45.1,40 44,40 L2,40 C0.9,40 0,39.1 0,38 L0,10 C0,8.898 0.9,8 2,8 L44,8 C45.1,8 46,8.898 46,10 L46,38 L46,38 Z M16,8 L16,1 C16,0.448 16.452,0 17,0 L29,0 C29.55,0 30,0.448 30,1 L30,8 L16,8 Z M16,4 L30,4 L16,4 Z"/>
    <path stroke="#8B572A" stroke-width="2" d="M6,16 L40,16 M6,24 L40,24 M6,32 L40,32" stroke-linecap="round"/>
  </g>
</svg>
