<svg xmlns="http://www.w3.org/2000/svg" width="32" height="32" viewBox="0 0 32 32">
  <g fill="none" fill-rule="evenodd">
    <circle cx="15.5" cy="15.5" r="14.5" fill="#EA4C89"/>
    <path fill="#A6285F" d="M16,0 C7.16342328,0 0,7.16342328 0,16 C0,24.8365767 7.16342328,32 16,32 C24.8365767,32 32,24.8365767 32,16 C32,7.16342328 24.8365015,0 16,0 L16,0 Z M28.9392489,14.8494248 C27.2408883,14.7811774 24.0272388,14.7794468 20.3754362,15.417978 C20.045561,14.6270751 19.7086128,13.868603 19.3700091,13.1448941 C19.5815235,13.0461724 19.7913073,12.9457952 19.9971031,12.8421072 C22.5053283,11.5780622 24.5882674,9.94283242 26.2116085,7.96892371 C27.7767097,9.95088366 28.7191565,12.3250971 28.9392489,14.8494248 L28.9392489,14.8494248 Z M24.0753205,5.82375681 C22.5601068,7.75387278 20.540449,9.30347351 18.0313961,10.4616484 C17.7491511,9.92981499 17.4709694,9.42394116 17.2009895,8.94906837 C15.8199381,6.52022686 14.502168,4.58717633 13.51638,3.24615544 C14.3262446,3.09024727 15.1568769,3.0098101 16,3.0098101 C18.9696291,3.0098101 21.7865857,4.0003386 24.0753205,5.82375681 L24.0753205,5.82375681 Z M6.81451105,6.81451105 C7.89826842,5.73075368 9.13996558,4.86249871 10.4875328,4.2302881 C11.4335914,5.45889258 12.9916948,7.62633208 14.6242158,10.5066451 C14.810824,10.8359183 15.0017965,11.1817455 15.1951015,11.5401386 C13.9406879,11.9279527 12.5937227,12.2401452 11.15398,12.4746094 C7.92400229,13.0005737 5.01306446,12.9846218 3.37821086,12.909828 C3.93404754,10.6215446 5.10697053,8.52212681 6.81451105,6.81451105 L6.81451105,6.81451105 Z M3.0098101,16 C3.0098101,15.9692247 3.01071304,15.9385246 3.01093878,15.9078246 C3.56602301,15.9373959 4.27250068,15.9616249 5.09605997,15.9616249 C6.83603119,15.9616249 9.09888167,15.8532718 11.5601539,15.4579332 C13.3356409,15.1726784 15.00902,14.7701163 16.5665215,14.2546111 C16.8418439,14.8379123 17.1163386,15.4458187 17.3868452,16.0765997 C15.3917926,16.6132488 13.5601727,17.315287 11.9174183,18.1754907 C9.25185527,19.5712902 7.08057826,21.3849265 5.44587515,23.5768959 C3.86399421,21.3833463 3.0098101,18.7575128 3.0098101,16 L3.0098101,16 Z M7.52369755,25.8447126 C9.80942259,22.4971266 13.4941826,20.1650505 18.5021304,18.8926532 C19.506504,21.6543045 20.36588,24.7424449 20.86137,28.0528598 C19.336826,28.6675383 17.6933192,28.9901899 16,28.9901899 C12.8547484,28.9901899 9.88007788,27.879871 7.52369755,25.8447126 L7.52369755,25.8447126 Z M25.1854137,25.1854137 C24.705951,25.6648765 24.1952614,26.1015247 23.658537,26.4949821 C23.144612,23.5542471 22.3716175,20.7963581 21.4813909,18.2853488 C24.6364996,17.790536 27.4124474,17.8028762 28.8580592,17.8607398 C28.4640751,20.624498 27.1946877,23.176215 25.1854137,25.1854137 L25.1854137,25.1854137 Z"/>
  </g>
</svg>
