<?xml version="1.0" encoding="UTF-8" standalone="no"?>
<svg width="24px" height="24px" viewBox="0 0 24 24" version="1.1" xmlns="http://www.w3.org/2000/svg" xmlns:xlink="http://www.w3.org/1999/xlink">
    <!-- Generator: Sketch 40.2 (33826) - http://www.bohemiancoding.com/sketch -->
    <title>dribbble</title>
    <desc>Created with Sketch.</desc>
    <defs></defs>
    <g id="Page-1" stroke="none" stroke-width="1" fill="none" fill-rule="evenodd">
        <g id="dribbble">
            <circle id="Oval" fill="#EA4C89" cx="12" cy="12" r="11"></circle>
            <path d="M11.9796056,0 C5.36343662,0 0,5.36343662 0,11.9796056 C0,18.5957746 5.36343662,23.9592113 11.9796056,23.9592113 C18.5957746,23.9592113 23.9592113,18.5957746 23.9592113,11.9796056 C23.9592113,5.36343662 18.5957183,0 11.9796056,0 L11.9796056,0 Z M21.6675493,11.1181408 C20.3959437,11.0670423 17.9898028,11.0657465 15.2556056,11.543831 C15.0086197,10.951662 14.756338,10.3837746 14.5028169,9.84191549 C14.6611831,9.768 14.8182535,9.69284507 14.972338,9.61521127 C16.8503099,8.66878873 18.4098592,7.4444507 19.6252958,5.96653521 C20.7971268,7.45047887 21.5027606,9.22811268 21.6675493,11.1181408 L21.6675493,11.1181408 Z M18.0258028,4.36039437 C16.8913239,5.80552113 15.3791549,6.96574648 13.5005634,7.83290141 C13.2892394,7.43470423 13.0809577,7.05594366 12.8788169,6.70039437 C11.8447887,4.88185915 10.8581408,3.43453521 10.1200563,2.43047887 C10.7264225,2.31374648 11.348338,2.25352113 11.9796056,2.25352113 C14.2030423,2.25352113 16.312169,2.99515493 18.0258028,4.36039437 L18.0258028,4.36039437 Z M5.10219718,5.10219718 C5.9136338,4.29076056 6.84332394,3.64067606 7.85228169,3.16732394 C8.56061972,4.08721127 9.72721127,5.71002817 10.9495211,7.86659155 C11.0892394,8.11312676 11.2322254,8.37205634 11.3769577,8.64039437 C10.4377465,8.93076056 9.42923944,9.16450704 8.35126761,9.34005634 C5.93290141,9.73385915 3.75340845,9.72191549 2.52935211,9.66591549 C2.94552113,7.95261972 3.82371831,6.38073239 5.10219718,5.10219718 L5.10219718,5.10219718 Z M2.25352113,11.9796056 C2.25352113,11.9565634 2.25419718,11.9335775 2.2543662,11.9105915 C2.66997183,11.9327324 3.19892958,11.9508732 3.8155493,11.9508732 C5.11830986,11.9508732 6.81256338,11.8697465 8.65538028,11.5737465 C9.98473239,11.360169 11.2376338,11.0587606 12.4037746,10.6727887 C12.6099155,11.1095211 12.8154366,11.5646761 13.0179718,12.0369577 C11.5242254,12.4387606 10.1528451,12.9643944 8.92287324,13.6084507 C6.92709859,14.6535211 5.30140845,16.0114366 4.07746479,17.6526197 C2.89307042,16.0102535 2.25352113,14.0442254 2.25352113,11.9796056 L2.25352113,11.9796056 Z M5.6331831,19.3505915 C7.34456338,16.844169 10.1034366,15.0980845 13.8530141,14.1454085 C14.6050141,16.2131268 15.2484507,18.5252958 15.6194366,21.0038873 C14.4779718,21.4641127 13.2474366,21.7056901 11.9796056,21.7056901 C9.62467606,21.7056901 7.39746479,20.8743662 5.6331831,19.3505915 L5.6331831,19.3505915 Z M18.8569577,18.8569577 C18.4979718,19.2159437 18.1156056,19.5428732 17.7137465,19.8374648 C17.3289577,17.635662 16.7501972,15.5707606 16.083662,13.6907042 C18.4459718,13.3202254 20.5243944,13.3294648 21.6067606,13.3727887 C21.3117746,15.4420845 20.3613521,17.3526197 18.8569577,18.8569577 L18.8569577,18.8569577 Z" id="Shape" fill="#A6285F"></path>
        </g>
    </g>
</svg>