<svg xmlns="http://www.w3.org/2000/svg" width="48" height="45" viewBox="0 0 48 45">
  <g fill="none" fill-rule="evenodd">
    <path fill="#CBFFFF" d="M24,0 C10.766,0 0,8.868 0,19.766 C0,24.916 2.354,29.74 6.65,33.43 L1.83,43.052 C1.64,43.432 1.71,43.892 2.008,44.198 C2.2,44.396 2.46,44.5 2.724,44.5 L3.146,44.406 L16.02,38.414 C18.576,39.156 21.26,39.532 24,39.532 C37.234,39.532 48,30.664 48,19.766 C48,8.868 37.234,7.10542736e-15 24,7.10542736e-15 L24,0 Z"/>
    <path fill="#D91029" d="M30.552,9.998 C28.65,9.998 26.412,10.982 25,13.566 C23.588,10.982 21.348,9.998 19.448,9.998 C16.278,9.998 13,12.644 13,17.072 C13,23.436 23.946,31.47 24.412,31.808 C24.586,31.936 24.794,32 25,32 C25.206,32 25.412,31.936 25.588,31.808 C26.054,31.47 37,23.436 37,17.072 C37,12.644 33.722,9.998 30.552,9.998 L30.552,9.998 Z"/>
    <path fill="#212121" d="M24,0 C10.766,0 0,8.868 0,19.766 C0,24.916 2.354,29.74 6.65,33.43 L1.83,43.052 C1.64,43.432 1.71,43.892 2.008,44.198 C2.2,44.396 2.46,44.5 2.724,44.5 L3.146,44.406 L16.02,38.414 C18.576,39.156 21.26,39.532 24,39.532 C37.234,39.532 48,30.664 48,19.766 C48,8.868 37.234,7.10542736e-15 24,7.10542736e-15 L24,0 Z M24,37.532 C21.324,37.532 18.71,37.148 16.234,36.392 C15.998,36.32 15.744,36.336 15.52,36.442 L4.904,41.384 L8.796,33.618 C9.006,33.196 8.894,32.684 8.526,32.388 C4.318,29.022 2,24.54 2,19.766 C2,9.97 11.87,2 24,2 C36.13,2 46,9.97 46,19.766 C46,29.562 36.13,37.532 24,37.532 L24,37.532 Z M30.552,9.998 C28.65,9.998 26.412,10.982 25,13.566 C23.588,10.982 21.348,9.998 19.448,9.998 C16.278,9.998 13,12.644 13,17.072 C13,23.436 23.946,31.47 24.412,31.808 C24.586,31.936 24.794,32 25,32 C25.206,32 25.412,31.936 25.588,31.808 C26.054,31.47 37,23.436 37,17.072 C37,12.644 33.722,9.998 30.552,9.998 L30.552,9.998 Z M25,29.752 C21.74,27.258 15,21.242 15,17.072 C15,13.896 17.26,11.998 19.448,11.998 C21.62,11.998 23.332,13.726 24.028,16.622 C24.244,17.522 25.756,17.522 25.974,16.622 C26.67,13.728 28.382,11.998 30.554,11.998 C32.74,11.998 35.002,13.896 35.002,17.072 C35,21.242 28.26,27.258 25,29.752 L25,29.752 Z"/>
  </g>
</svg>
