<svg xmlns="http://www.w3.org/2000/svg" width="32" height="32" viewBox="0 0 32 32">
  <path fill="#006087" fill-rule="evenodd" d="M29.632,0 C30.9368889,0 31.9991111,1.03288889 31.9991111,2.30755556 L31.9991111,29.6906667 C31.9991111,30.9653333 30.9368889,32 29.632,32 L2.36,32 C1.05777778,32 0,30.9653333 0,29.6906667 L0,2.30755556 C0,1.03288889 1.05777778,0 2.36,0 L29.632,0 Z M7.11822222,4.40533333 C5.59377778,4.40533333 4.36444444,5.63822222 4.36444444,7.15733333 C4.36444444,8.67733333 5.59377778,9.91022222 7.11822222,9.91022222 C8.63644444,9.91022222 9.86844444,8.67733333 9.86844444,7.15733333 C9.86844444,5.63822222 8.63644444,4.40533333 7.11822222,4.40533333 Z M4.74133333,27.2675556 L9.49244444,27.2675556 L9.49244444,11.9964444 L4.74133333,11.9964444 L4.74133333,27.2675556 Z M12.4693333,11.9964444 L12.4693333,27.2675556 L17.2097778,27.2675556 L17.2097778,19.7146667 C17.2097778,17.7217778 17.5866667,15.792 20.0568889,15.792 C22.4924444,15.792 22.5226667,18.0702222 22.5226667,19.8408889 L22.5226667,27.2675556 L27.2684444,27.2675556 L27.2684444,18.8924444 C27.2684444,14.7795556 26.3804444,11.6177778 21.5742222,11.6177778 C19.2657778,11.6177778 17.7173333,12.8835556 17.0844444,14.0844444 L17.0186667,14.0844444 L17.0186667,11.9964444 L12.4693333,11.9964444 Z"/>
</svg>
