<?xml version="1.0" encoding="UTF-8" standalone="no"?>
<svg width="32px" height="46px" viewBox="0 0 32 46" version="1.1" xmlns="http://www.w3.org/2000/svg" xmlns:xlink="http://www.w3.org/1999/xlink">
    <!-- Generator: Sketch 40.2 (33826) - http://www.bohemiancoding.com/sketch -->
    <title>microphone</title>
    <desc>Created with Sketch.</desc>
    <defs></defs>
    <g id="Page-1" stroke="none" stroke-width="1" fill="none" fill-rule="evenodd">
        <g id="microphone">
            <rect id="Rectangle-3" fill="#9B9B9B" x="4" y="1" width="24" height="34" rx="12"></rect>
            <path d="M4.72094727,23.5871582 L27.423584,23.5246582 C27.423584,23.5246582 26.6203613,34.1748047 16.387207,34.6862793 C6.15405273,35.1977539 4.72094727,23.5871582 4.72094727,23.5871582 Z" id="Path-2" fill="#4A4A4A"></path>
            <path d="M31.0588235,18.8235294 C30.5392941,18.8235294 30.1176471,19.2451765 30.1176471,19.7647059 L30.1176471,22.5882353 L28.2352941,22.5882353 L28.2352941,12.2352941 C28.2352941,6.96094118 24.8734118,2.46964706 20.1863529,0.752941176 L20.032,0.696470588 C18.7670588,0.254117647 17.4136471,0 16,0 C14.5844706,0 13.2310588,0.254117647 11.9661176,0.698352941 L11.8174118,0.752941176 C7.12658824,2.46588235 3.76470588,6.95905882 3.76470588,12.2352941 L3.76470588,22.5882353 L1.88235294,22.5882353 L1.88235294,19.7647059 C1.88235294,19.2451765 1.46070588,18.8235294 0.941176471,18.8235294 C0.421647059,18.8235294 0,19.2451765 0,19.7647059 L0,23.5294118 C0,32.1825882 6.54305882,39.008 15.0588235,39.4842353 L15.0588235,44.2352941 C15.0588235,44.7548235 15.4804706,45.1764706 16,45.1764706 C16.5195294,45.1764706 16.9411765,44.7548235 16.9411765,44.2352941 L16.9411765,39.4842353 C25.4569412,39.0098824 32,32.1844706 32,23.5294118 L32,19.7647059 C32,19.2451765 31.5783529,18.8235294 31.0588235,18.8235294 L31.0588235,18.8235294 Z M5.64705882,20.7058824 L12.2352941,20.7058824 C12.7548235,20.7058824 13.1764706,20.2842353 13.1764706,19.7647059 C13.1764706,19.2451765 12.7548235,18.8235294 12.2352941,18.8235294 L5.64705882,18.8235294 L5.64705882,16.9411765 L12.2352941,16.9411765 C12.7548235,16.9411765 13.1764706,16.5195294 13.1764706,16 C13.1764706,15.4804706 12.7548235,15.0588235 12.2352941,15.0588235 L5.64705882,15.0588235 L5.64705882,13.1764706 L12.2352941,13.1764706 C12.7548235,13.1764706 13.1764706,12.7548235 13.1764706,12.2352941 C13.1764706,11.7157647 12.7548235,11.2941176 12.2352941,11.2941176 L5.69411765,11.2941176 C6.02164706,7.68376471 8.21270588,4.60611765 11.2941176,3.02494118 L11.2941176,6.58823529 C11.2941176,7.10776471 11.7157647,7.52941176 12.2352941,7.52941176 C12.7548235,7.52941176 13.1764706,7.10776471 13.1764706,6.58823529 L13.1764706,2.28329412 C13.7844706,2.11011765 14.4112941,1.98776471 15.0588235,1.92941176 L15.0588235,6.58823529 C15.0588235,7.10776471 15.4804706,7.52941176 16,7.52941176 C16.5195294,7.52941176 16.9411765,7.10776471 16.9411765,6.58823529 L16.9411765,1.92941176 C17.5887059,1.98776471 18.2174118,2.11011765 18.8254118,2.28329412 L18.8235294,6.58823529 C18.8235294,7.10776471 19.2451765,7.52941176 19.7647059,7.52941176 C20.2842353,7.52941176 20.7058824,7.10776471 20.7058824,6.58823529 L20.7077647,3.02682353 C23.7891765,4.608 25.9783529,7.68376471 26.3058824,11.2941176 L19.7647059,11.2941176 C19.2451765,11.2941176 18.8235294,11.7157647 18.8235294,12.2352941 C18.8235294,12.7548235 19.2451765,13.1764706 19.7647059,13.1764706 L26.3529412,13.1764706 L26.3529412,15.0588235 L19.7647059,15.0588235 C19.2451765,15.0588235 18.8235294,15.4804706 18.8235294,16 C18.8235294,16.5195294 19.2451765,16.9411765 19.7647059,16.9411765 L26.3529412,16.9411765 L26.3529412,18.8235294 L19.7647059,18.8235294 C19.2451765,18.8235294 18.8235294,19.2451765 18.8235294,19.7647059 C18.8235294,20.2842353 19.2451765,20.7058824 19.7647059,20.7058824 L26.3529412,20.7058824 L26.3529412,22.5882353 L5.64705882,22.5882353 L5.64705882,20.7058824 L5.64705882,20.7058824 Z M26.3058824,24.4705882 C25.8277647,29.7392941 21.3910588,33.8823529 16,33.8823529 C10.6089412,33.8823529 6.17223529,29.7392941 5.69411765,24.4705882 L26.3058824,24.4705882 L26.3058824,24.4705882 Z M16,37.6470588 C8.40094118,37.6470588 2.4,31.9303529 1.92752941,24.4705882 L3.81176471,24.4705882 C4.29552941,30.7783529 9.56988235,35.7647059 16,35.7647059 C22.4282353,35.7647059 27.7044706,30.7783529 28.1882353,24.4705882 L30.0724706,24.4705882 C29.6,31.9303529 23.5971765,37.6470588 16,37.6470588 L16,37.6470588 Z" id="Shape" fill="#424242"></path>
        </g>
    </g>
</svg>