<svg xmlns="http://www.w3.org/2000/svg" width="34" height="48" viewBox="0 0 34 48">
  <g fill="none" fill-rule="evenodd">
    <rect width="26" height="36" x="4" y="1" fill="#9B9B9B" rx="13"/>
    <path fill="#4A4A4A" d="M5,26.0670959 L29,26 C29,26 28.1508764,37.4332918 17.332939,37.9823771 C6.51500161,38.5314624 5,26.0670959 5,26.0670959 Z"/>
    <path fill="#424242" d="M33,20 C32.448,20 32,20.448 32,21 L32,24 L30,24 L30,13 C30,7.396 26.428,2.624 21.448,0.8 L21.284,0.74 C19.94,0.27 18.502,0 17,0 C15.496,0 14.058,0.27 12.714,0.742 L12.556,0.8 C7.572,2.62 4,7.394 4,13 L4,24 L2,24 L2,21 C2,20.448 1.552,20 1,20 C0.448,20 0,20.448 0,21 L0,25 C0,34.194 6.952,41.446 16,41.952 L16,47 C16,47.552 16.448,48 17,48 C17.552,48 18,47.552 18,47 L18,41.952 C27.048,41.448 34,34.196 34,25 L34,21 C34,20.448 33.552,20 33,20 L33,20 Z M6,22 L13,22 C13.552,22 14,21.552 14,21 C14,20.448 13.552,20 13,20 L6,20 L6,18 L13,18 C13.552,18 14,17.552 14,17 C14,16.448 13.552,16 13,16 L6,16 L6,14 L13,14 C13.552,14 14,13.552 14,13 C14,12.448 13.552,12 13,12 L6.05,12 C6.398,8.164 8.726,4.894 12,3.214 L12,7 C12,7.552 12.448,8 13,8 C13.552,8 14,7.552 14,7 L14,2.426 C14.646,2.242 15.312,2.112 16,2.05 L16,7 C16,7.552 16.448,8 17,8 C17.552,8 18,7.552 18,7 L18,2.05 C18.688,2.112 19.356,2.242 20.002,2.426 L20,7 C20,7.552 20.448,8 21,8 C21.552,8 22,7.552 22,7 L22.002,3.216 C25.276,4.896 27.602,8.164 27.95,12 L21,12 C20.448,12 20,12.448 20,13 C20,13.552 20.448,14 21,14 L28,14 L28,16 L21,16 C20.448,16 20,16.448 20,17 C20,17.552 20.448,18 21,18 L28,18 L28,20 L21,20 C20.448,20 20,20.448 20,21 C20,21.552 20.448,22 21,22 L28,22 L28,24 L6,24 L6,22 L6,22 Z M27.95,26 C27.442,31.598 22.728,36 17,36 C11.272,36 6.558,31.598 6.05,26 L27.95,26 L27.95,26 Z M17,40 C8.926,40 2.55,33.926 2.048,26 L4.05,26 C4.564,32.702 10.168,38 17,38 C23.83,38 29.436,32.702 29.95,26 L31.952,26 C31.45,33.926 25.072,40 17,40 L17,40 Z"/>
  </g>
</svg>
