<svg xmlns="http://www.w3.org/2000/svg" width="35" height="48" viewBox="0 0 35 48">
  <g fill="none" fill-rule="evenodd">
    <path fill="#D8D8D8" d="M2.36912664,16.7730873 C2.36912664,16.7730873 32.9336314,17.5672219 33.3501063,16.0529595 C33.7665812,14.5386971 37.9724496,46 18.0729467,46 C-1.82655623,46 2.36912664,16.7730873 2.36912664,16.7730873 Z"/>
    <path fill="#D8D8D8" d="M17,2.06070962 C17,2.06070962 17,18 17,18 L2.01170166,15.8930933 C2.01170166,15.8930933 1.03205015,0.932870108 17,2.06070962 Z"/>
    <path fill="#D8D8D8" d="M33,3.06070962 C33,3.06070962 33,19 33,19 L18.0117017,16.8930933 C18.0117017,16.8930933 17.0320502,1.93287011 33,3.06070962 Z" transform="matrix(-1 0 0 1 51 0)"/>
    <path fill="#212121" fill-rule="nonzero" d="M30.8221871,14.8633455 C30.1198882,8.45120361 27.7104836,4.56449726 19.4444444,4.05684387 L19.4444444,15.9798289 C23.3742659,15.8973373 27.2586977,15.556668 30.8221871,14.8633455 Z M31.0702074,18.9400431 C26.7587849,19.6917752 22.279224,20 17.5,20 C12.720776,20 8.24121508,19.6917752 3.92979256,18.9400431 C3.88888889,20.5211271 3.88888889,22.2105842 3.88888889,24 C3.88888889,29 3.88888889,44 17.5,44 C31.1111111,44 31.1111111,29 31.1111111,24 C31.1111111,22.2105842 31.1111111,20.5211271 31.0702074,18.9400431 Z M4.17781287,14.8633455 C7.74130226,15.556668 11.6257341,15.8973373 15.5555556,15.9798289 L15.5555556,4.05684387 C7.28951635,4.56449726 4.88011179,8.45120361 4.17781287,14.8633455 Z M17.5,48 C9.52777778,48 0,43.8 0,24 C0,12.2 0,0 17.5,0 C35,0 35,12.2 35,24 C35,43.8 25.4722222,48 17.5,48 Z"/>
    <path stroke="#FFFFFF" stroke-width="2" d="M28.9593218 21C28.9593218 21.8235439 31.40297 40.6619214 18.0620117 41.9741211M21 6C21 6 27.533968 6.57051746 28 13" stroke-linecap="round" stroke-linejoin="round"/>
  </g>
</svg>
