<svg xmlns="http://www.w3.org/2000/svg" width="150" height="152" viewBox="0 0 150 152">
  <g fill="none" fill-rule="evenodd">
    <path fill="#9B9B9B" fill-rule="nonzero" d="M75,152 C116.421356,152 150,118.421356 150,77 C150,35.5786438 116.421356,2 75,2 C33.5786438,2 0,35.5786438 0,77 C0,118.421356 33.5786438,152 75,152 Z"/>
    <path fill="#EEEEEE" fill-rule="nonzero" d="M75,150 C116.421356,150 150,116.421356 150,75 C150,33.5786438 116.421356,0 75,0 C33.5786438,0 0,33.5786438 0,75 C0,116.421356 33.5786438,150 75,150 Z"/>
    <g transform="translate(29 35)">
      <polygon fill="#ED6C00" points="3.158 26.316 90.526 26.316 90.526 75.789 3.158 75.789"/>
      <path fill="#FFB100" d="M66.5789474,20 L89.7368421,20 C91.3289474,20 92.6315789,21.2963989 92.6315789,22.8808864 L92.6315789,74.7368421 L63.6842105,74.7368421 L63.6842105,22.8808864 C63.6842105,21.2963989 64.9868421,20 66.5789474,20 L66.5789474,20 Z M2.89473684,20 L26.0526316,20 C27.6447368,20 28.9473684,21.2963989 28.9473684,22.8808864 L28.9473684,74.7368421 L0,74.7368421 L0,22.8808864 C0,21.2963989 1.30263158,20 2.89473684,20 L2.89473684,20 Z"/>
      <path fill="#FF9F00" d="M78.2066277,20 L89.7465887,20 C91.3333333,20 92.6315789,21.2963989 92.6315789,22.8808864 L92.6315789,74.7368421 L78.2066277,74.7368421 L78.2066277,20 Z M14.7368421,20 L26.2768031,20 C27.8635478,20 29.1617934,21.2963989 29.1617934,22.8808864 L29.1617934,74.7368421 L14.7368421,74.7368421 L14.7368421,20 Z"/>
      <path fill="#FFC928" d="M59.5789474,0 L56.6315789,0 C55.8210526,0 55.1578947,0.646761134 55.1578947,1.43724696 L55.1578947,2.87449393 L37.4736842,2.87449393 L37.4736842,1.43724696 C37.4736842,0.646761134 36.8105263,0 36,0 L33.0526316,0 C32.2421053,0 31.5789474,0.646761134 31.5789474,1.43724696 L31.5789474,74.7368421 L37.4736842,74.7368421 L55.1578947,74.7368421 L61.0526316,74.7368421 L61.0526316,1.43724696 C61.0526316,0.646761134 60.3894737,0 59.5789474,0 L59.5789474,0 Z"/>
      <path fill="#FFB100" d="M46.4327485,2.87449393 L55.2046784,2.87449393 L55.2046784,74.7368421 L46.4327485,74.7368421 L46.4327485,2.87449393 Z M34.7368421,0 L36.1988304,0 C37.002924,0 37.6608187,0.646761134 37.6608187,1.43724696 L37.6608187,74.7368421 L34.7368421,74.7368421 L34.7368421,0 Z M59.5906433,0 L58.128655,0 L58.128655,74.7368421 L61.0526316,74.7368421 L61.0526316,1.43724696 C61.0526316,0.646761134 60.3947368,0 59.5906433,0 L59.5906433,0 Z"/>
      <polygon fill="#854B0E" points="37.895 51.579 55.789 51.579 55.789 74.737 37.895 74.737"/>
      <polygon fill="#673703" points="46.316 51.579 54.737 51.579 54.737 74.737 46.316 74.737"/>
      <path fill="#28B5F5" d="M75.7894737,45.9649123 L70,45.9649123 L70,63.1578947 L75.7894737,63.1578947 L75.7894737,45.9649123 Z M75.7894737,25.9064327 L70,25.9064327 L70,43.0994152 L75.7894737,43.0994152 L75.7894737,25.9064327 Z M38.1578947,31.6374269 L43.9473684,31.6374269 L43.9473684,48.8304094 L38.1578947,48.8304094 L38.1578947,31.6374269 Z M38.1578947,11.5789474 L43.9473684,11.5789474 L43.9473684,28.7719298 L38.1578947,28.7719298 L38.1578947,11.5789474 Z M6.31578947,45.9649123 L12.1052632,45.9649123 L12.1052632,63.1578947 L6.31578947,63.1578947 L6.31578947,45.9649123 Z M6.31578947,25.9064327 L12.1052632,25.9064327 L12.1052632,43.0994152 L6.31578947,43.0994152 L6.31578947,25.9064327 Z M87.3684211,45.9649123 L81.5789474,45.9649123 L81.5789474,63.1578947 L87.3684211,63.1578947 L87.3684211,45.9649123 Z M87.3684211,25.9064327 L81.5789474,25.9064327 L81.5789474,43.0994152 L87.3684211,43.0994152 L87.3684211,25.9064327 Z M55.5263158,31.6374269 L49.7368421,31.6374269 L49.7368421,48.8304094 L55.5263158,48.8304094 L55.5263158,31.6374269 Z M55.5263158,11.5789474 L49.7368421,11.5789474 L49.7368421,28.7719298 L55.5263158,28.7719298 L55.5263158,11.5789474 Z M17.8947368,45.9649123 L23.6842105,45.9649123 L23.6842105,63.1578947 L17.8947368,63.1578947 L17.8947368,45.9649123 Z M17.8947368,25.9064327 L23.6842105,25.9064327 L23.6842105,43.0994152 L17.8947368,43.0994152 L17.8947368,25.9064327 Z"/>
      <path fill="#0299E3" d="M87.3684211,45.9649123 L81.5789474,45.9649123 L81.5789474,63.1578947 L87.3684211,63.1578947 L87.3684211,45.9649123 Z M87.3684211,25.9064327 L81.5789474,25.9064327 L81.5789474,43.0994152 L87.3684211,43.0994152 L87.3684211,25.9064327 Z M55.5263158,31.6374269 L49.7368421,31.6374269 L49.7368421,48.8304094 L55.5263158,48.8304094 L55.5263158,31.6374269 Z M55.5263158,11.5789474 L49.7368421,11.5789474 L49.7368421,28.7719298 L55.5263158,28.7719298 L55.5263158,11.5789474 Z M17.8947368,45.9649123 L23.6842105,45.9649123 L23.6842105,63.1578947 L17.8947368,63.1578947 L17.8947368,45.9649123 Z M17.8947368,25.9064327 L23.6842105,25.9064327 L23.6842105,43.0994152 L17.8947368,43.0994152 L17.8947368,25.9064327 Z"/>
      <polygon fill="#8FA3AD" points="0 74.737 92.632 74.737 92.632 80 0 80"/>
      <polygon fill="#788F9B" points="46.316 74.737 92.632 74.737 92.632 80 46.316 80"/>
    </g>
  </g>
</svg>
