<svg xmlns="http://www.w3.org/2000/svg" width="48" height="43" viewBox="0 0 48 43">
  <path fill="#9B9B9B" fill-rule="evenodd" d="M43.8881372,26.5835556 L47.2960858,23.1889444 C48.2344716,22.2572778 48.2344716,20.7451111 47.2960858,19.8134444 L43.8881372,16.4212222 L47.5960812,10.8813889 C48.0880738,10.148 48.1336731,9.20438889 47.7160794,8.43038889 C47.2984857,7.654 46.484898,7.16666667 45.5993114,7.16666667 L28.3459719,7.16666667 C26.7835955,3.00522222 21.2228795,0 14.3997825,0 C6.32630446,0 0,4.19727778 0,9.55555556 L0,33.4444444 C0,38.8027222 6.32630446,43 14.3997825,43 C21.2228795,43 26.7835955,39.9971667 28.3459719,35.8333333 L45.5993114,35.8333333 C46.484898,35.8333333 47.2984857,35.3483889 47.7160794,34.572 C48.1336731,33.7932222 48.0880738,32.852 47.5960812,32.121 L43.8881372,26.5835556 Z M14.3997825,4.77777778 C19.8956995,4.77777778 23.9996376,7.30044444 23.9996376,9.55555556 C23.9996376,11.8106667 19.8956995,14.3333333 14.3997825,14.3333333 C8.90386554,14.3333333 4.79992751,11.8130556 4.79992751,9.55555556 C4.79992751,7.29805556 8.90386554,4.77777778 14.3997825,4.77777778 Z M14.3997825,38.2222222 C8.90386554,38.2222222 4.79992751,35.6995556 4.79992751,33.4444444 L4.79992751,16.7222222 C7.33188928,18.2105 10.6750388,19.1111111 14.3997825,19.1111111 C18.1245263,19.1111111 21.4676758,18.2105 23.9996376,16.7222222 L23.9996376,33.4444444 C23.9996376,35.7019444 19.8956995,38.2222222 14.3997825,38.2222222 Z M38.802614,27.6036111 L41.1137791,31.0555556 L28.7995651,31.0555556 L28.7995651,11.9444444 L41.1137791,11.9444444 L38.802614,15.3963889 C38.1666236,16.3447778 38.2938217,17.6061111 39.1026095,18.4087778 L42.2057626,21.5 L39.1026095,24.5888333 C38.2938217,25.3938889 38.1666236,26.6576111 38.802614,27.6036111 Z M14.3997825,11.9444444 C13.0743192,11.9444444 11.9998188,10.8749025 11.9998188,9.55555556 C11.9998188,8.23620865 13.0743192,7.16666667 14.3997825,7.16666667 C15.7252459,7.16666667 16.7997463,8.23620865 16.7997463,9.55555556 C16.7997463,10.8749025 15.7252459,11.9444444 14.3997825,11.9444444 Z"/>
</svg>
