<?xml version="1.0" encoding="UTF-8" standalone="no"?>
<svg width="29px" height="24px" viewBox="0 0 29 24" version="1.1" xmlns="http://www.w3.org/2000/svg" xmlns:xlink="http://www.w3.org/1999/xlink">
    <!-- Generator: Sketch 40.2 (33826) - http://www.bohemiancoding.com/sketch -->
    <title>twitter</title>
    <desc>Created with Sketch.</desc>
    <defs></defs>
    <g id="Page-1" stroke="none" stroke-width="1" fill="none" fill-rule="evenodd">
        <g id="twitter" fill="#76A9EA">
            <path d="M28.3250526,2.81964912 C27.6855439,3.10322807 27.0216842,3.32694737 26.3404912,3.48891228 C27.0910877,2.77564912 27.6554386,1.88350877 27.9738246,0.887719298 L27.9738246,0.887719298 C28.0647018,0.603438596 27.7559298,0.357614035 27.4992281,0.509824561 L27.4992281,0.509824561 C26.5515789,1.07192982 25.530807,1.49361404 24.465193,1.76329825 C24.4033684,1.77894737 24.3395789,1.78687719 24.2755789,1.78687719 C24.0814737,1.78687719 23.8927719,1.71480702 23.7443509,1.584 C22.6105965,0.58477193 21.1524211,0.0344561404 19.6385263,0.0344561404 C18.9834386,0.0344561404 18.3220351,0.136561404 17.6726316,0.337964912 C15.6605614,0.962035088 14.1080702,2.62175439 13.6209825,4.66947368 C13.4382456,5.43754386 13.3887719,6.20631579 13.4738246,6.95438596 C13.4835789,7.04035088 13.4429474,7.10035088 13.4178947,7.12849123 C13.3738947,7.17782456 13.3115088,7.20610526 13.2467368,7.20610526 C13.2395088,7.20610526 13.2320702,7.20575439 13.2247018,7.20505263 C8.82035088,6.79585965 4.84870175,4.67396491 2.04133333,1.23031579 L2.04133333,1.23031579 C1.89817544,1.05466667 1.62364912,1.07621053 1.50954386,1.27192982 L1.50954386,1.27192982 C0.959789474,2.21508772 0.669263158,3.29382456 0.669263158,4.39150877 C0.669263158,6.07375439 1.34512281,7.65908772 2.51908772,8.81480702 C2.02540351,8.69775439 1.54757895,8.51340351 1.1037193,8.26687719 L1.1037193,8.26687719 C0.888982456,8.14757895 0.62477193,8.30091228 0.621754386,8.54652632 L0.621754386,8.54652632 C0.591017544,11.045614 2.05417544,13.2693333 4.24603509,14.2706667 C4.20189474,14.2717193 4.15775439,14.2722105 4.11354386,14.2722105 C3.76610526,14.2722105 3.41431579,14.2386667 3.06807018,14.1724912 L3.06807018,14.1724912 C2.82624561,14.1263158 2.62308772,14.3557193 2.69817544,14.5901754 L2.69817544,14.5901754 C3.40961404,16.8112982 5.32203509,18.4484912 7.61059649,18.8202105 C5.71122807,20.0952281 3.49936842,20.7677895 1.19726316,20.7677895 L0.479578947,20.7673684 C0.25845614,20.7673684 0.0714385965,20.9115088 0.0150877193,21.1256842 C-0.0404210526,21.3366316 0.0618245614,21.5591579 0.250385965,21.6688421 C2.84449123,23.1785263 5.8034386,23.9764211 8.80863158,23.9764211 C11.4391579,23.9764211 13.8997895,23.454386 16.1222456,22.4249123 C18.1596491,21.4811228 19.9600702,20.132 21.4734737,18.4150175 C22.8832982,16.8155789 23.9857544,14.969193 24.7501053,12.9272281 C25.4787368,10.9807719 25.8638596,8.90385965 25.8638596,6.92098246 L25.8638596,6.82652632 C25.8637895,6.50814035 26.0077895,6.2085614 26.2590175,6.00463158 C27.2123509,5.23059649 28.0425263,4.3194386 28.726386,3.29649123 L28.726386,3.29649123 C28.9069474,3.02638596 28.6221754,2.68785965 28.3250526,2.81964912 L28.3250526,2.81964912 L28.3250526,2.81964912 Z" id="Shape"></path>
        </g>
    </g>
</svg>