<svg xmlns="http://www.w3.org/2000/svg" width="32" height="27" viewBox="0 0 32 27">
  <path fill="#76A9EA" fill-rule="evenodd" d="M31.4910613,3.1409373 C30.7800713,3.46073693 30.0420087,3.71303122 29.2846753,3.89568342 C30.1191698,3.09131731 30.7466011,2.08522656 31.1005746,0.962247892 L31.1005746,0.962247892 C31.2016096,0.641656872 30.8583247,0.36443388 30.5729301,0.536085798 L30.5729301,0.536085798 C29.5193574,1.16998707 28.3844885,1.64553174 27.1997654,1.9496619 C27.1310304,1.96730984 27.0601108,1.97625252 26.9889572,1.97625252 C26.7731558,1.97625252 26.5633619,1.89497704 26.3983511,1.74746243 C25.1378712,0.620605968 23.516708,0 21.8335975,0 C21.1052873,0 20.3699553,0.115146861 19.6479647,0.342275033 C17.4109951,1.04605581 15.684974,2.91776606 15.143442,5.22703438 C14.9402797,6.09320784 14.8852761,6.9601727 14.9798355,7.80379162 C14.9906802,7.90073658 14.945507,7.9684002 14.9176541,8.00013483 C14.868736,8.05576936 14.7993769,8.08766227 14.727365,8.08766227 C14.719329,8.08766227 14.711059,8.08726658 14.702867,8.08647519 C9.80621928,7.62501722 5.39063863,5.23209926 2.26947629,1.3486032 L2.26947629,1.3486032 C2.1103169,1.15051894 1.80510538,1.17481454 1.67824598,1.39553247 L1.67824598,1.39553247 C1.06704274,2.45915708 0.744042812,3.67567774 0.744042812,4.91356584 C0.744042812,6.81067963 1.49544675,8.59850281 2.80063172,9.90183866 C2.2517659,9.76983524 1.72053245,9.56193779 1.22706034,9.28392341 L1.22706034,9.28392341 C0.98832126,9.14938755 0.694578572,9.32230569 0.691223742,9.59929127 L0.691223742,9.59929127 C0.657051286,12.4175799 2.28375382,14.9253282 4.72060883,16.0545588 C4.67153468,16.0557459 4.62246054,16.0562999 4.57330838,16.0562999 C4.18703479,16.0562999 3.79592401,16.0184716 3.41097675,15.9438437 L3.41097675,15.9438437 C3.14212223,15.8917705 2.91625633,16.150475 2.99973699,16.4148775 L2.99973699,16.4148775 C3.79069672,18.9196976 5.91687885,20.7660043 8.46124446,21.1852022 C6.34957392,22.6230739 3.89048341,23.3815396 1.33106007,23.3815396 L0.533156628,23.3810647 C0.287317794,23.3810647 0.0793963429,23.5436157 0.01674684,23.7851471 C-0.0449664311,24.0230382 0.0687076979,24.2739871 0.278345574,24.3976809 C3.16240725,26.1001926 6.45209129,27 9.79319006,27 C12.7177437,27 15.4534127,26.4112869 17.9242841,25.2503217 C20.1894186,24.1859848 22.191082,22.6645426 23.8736463,20.7282552 C25.4410542,18.9245251 26.6667375,16.8423058 27.5165238,14.5395269 C28.3265982,12.3444557 28.7547682,10.0022657 28.7547682,7.76612159 L28.7547682,7.65960085 C28.7546901,7.3005484 28.9147858,6.96270514 29.1940949,6.73272797 C30.2539872,5.85982771 31.1769555,4.83229036 31.9372537,3.67868501 L31.9372537,3.67868501 C32.1379974,3.37408001 31.821395,2.99231475 31.4910613,3.1409373 L31.4910613,3.1409373 L31.4910613,3.1409373 Z"/>
</svg>
